# xmcd CD database file
#
# Track frame offsets:
#	150
#	14617
#	28555
#	42765
#	58072
#	70922
#	83530
#	97770
#	111107
#	124315
#	137727
#	152780
#	164502
#	175845
#	189917
#	203190
#	217702
#	232560
#	246505
#
# Disc length: 3459 seconds
#
# Revision: 2
# Processed by: cddbd v1.5.2PL0 Copyright (c) Steve Scherf et al.
# Submitted via: CDex 1.70beta2
#
DISCID=f50d8113
DTITLE=Billie Holiday - Greatest Hits
DYEAR=1995
DGENRE=Jazz
TTITLE0=Easy Living
TTITLE1=What Is This Thing Called Love?
TTITLE2=Solitude
TTITLE3=You're My Thrill
TTITLE4=Them There Eyes
TTITLE5=No More
TTITLE6=God Bless the Child
TTITLE7=My Man (Mon Homme)
TTITLE8=Don't Explain
TTITLE9=There Is No Greater Love
TTITLE10=T'ain't Nobody's Bizness If I Do
TTITLE11=You Better Go Now
TTITLE12=Big Stuff
TTITLE13=Good Morning, Heartache
TTITLE14=I Loves You Porgy (from Porgy and Bess)
TTITLE15=Guilty
TTITLE16=Lover Man (Oh, Where Can You Be?)
TTITLE17=Crazy He Calls Me
TTITLE18=That Ole Devil Called Love
EXTD=LABEL =GRP Records, Inc.\nID =GRD-653\nUPC =011105-0653-20\nCOPYRIGHT=1995 YEAR: 1995
EXTT0=
EXTT1=
EXTT2=
EXTT3=
EXTT4=
EXTT5=
EXTT6=
EXTT7=
EXTT8=
EXTT9=
EXTT10=
EXTT11=
EXTT12=
EXTT13=
EXTT14=
EXTT15=
EXTT16=
EXTT17=
EXTT18=
PLAYORDER=
